<mxfile host="65bd71144e">
    <diagram id="FKvJUptBVRFmlH8alIOe" name="Page-1">
        <mxGraphModel dx="1709" dy="1597" grid="1" gridSize="10" guides="1" tooltips="1" connect="1" arrows="1" fold="1" page="1" pageScale="1" pageWidth="850" pageHeight="1100" math="0" shadow="0">
            <root>
                <mxCell id="0"/>
                <mxCell id="1" parent="0"/>
                <mxCell id="70" value="" style="rounded=1;whiteSpace=wrap;html=1;fontSize=12;" parent="1" vertex="1">
                    <mxGeometry x="-60" y="-50" width="950" height="640" as="geometry"/>
                </mxCell>
                <mxCell id="2" value="" style="shape=mxgraph.cisco.wireless.radio_tower;sketch=0;html=1;pointerEvents=1;dashed=0;fillColor=#1ba1e2;strokeColor=#006EAF;strokeWidth=2;verticalLabelPosition=bottom;verticalAlign=top;align=center;outlineConnect=0;fontColor=#ffffff;" parent="1" vertex="1">
                    <mxGeometry x="200" y="180" width="37" height="101" as="geometry"/>
                </mxCell>
                <mxCell id="3" value="" style="shape=mxgraph.cisco.wireless.radio_tower;sketch=0;html=1;pointerEvents=1;dashed=0;fillColor=#1ba1e2;strokeColor=#006EAF;strokeWidth=2;verticalLabelPosition=bottom;verticalAlign=top;align=center;outlineConnect=0;flipV=0;flipH=0;fontColor=#ffffff;" parent="1" vertex="1">
                    <mxGeometry x="360" y="180" width="37" height="101" as="geometry"/>
                </mxCell>
                <mxCell id="5" value="" style="shape=mxgraph.cisco.wireless.radio_tower;sketch=0;html=1;pointerEvents=1;dashed=0;fillColor=#1ba1e2;strokeColor=#006EAF;strokeWidth=2;verticalLabelPosition=bottom;verticalAlign=top;align=center;outlineConnect=0;flipV=0;flipH=0;fontColor=#ffffff;" parent="1" vertex="1">
                    <mxGeometry x="520" y="180" width="37" height="101" as="geometry"/>
                </mxCell>
                <mxCell id="9" value="" style="shape=mxgraph.cisco.wireless.wireless_transport;sketch=0;html=1;pointerEvents=1;dashed=0;fillColor=#036897;strokeColor=#ffffff;strokeWidth=2;verticalLabelPosition=bottom;verticalAlign=top;align=center;outlineConnect=0;" parent="1" vertex="1">
                    <mxGeometry x="50" y="240" width="37" height="30" as="geometry"/>
                </mxCell>
                <mxCell id="10" value="" style="shape=mxgraph.cisco.wireless.wireless_transport;sketch=0;html=1;pointerEvents=1;dashed=0;fillColor=#036897;strokeColor=#ffffff;strokeWidth=2;verticalLabelPosition=bottom;verticalAlign=top;align=center;outlineConnect=0;" parent="1" vertex="1">
                    <mxGeometry x="30" y="190" width="37" height="30" as="geometry"/>
                </mxCell>
                <mxCell id="11" value="" style="shape=mxgraph.cisco.wireless.wireless_transport;sketch=0;html=1;pointerEvents=1;dashed=0;fillColor=#036897;strokeColor=#ffffff;strokeWidth=2;verticalLabelPosition=bottom;verticalAlign=top;align=center;outlineConnect=0;" parent="1" vertex="1">
                    <mxGeometry x="60" y="150" width="37" height="30" as="geometry"/>
                </mxCell>
                <mxCell id="16" value="" style="endArrow=none;html=1;startArrow=none;strokeWidth=3;fillColor=#1ba1e2;strokeColor=#006EAF;" parent="1" source="22" edge="1">
                    <mxGeometry width="50" height="50" relative="1" as="geometry">
                        <mxPoint x="390" y="400" as="sourcePoint"/>
                        <mxPoint x="680" y="400" as="targetPoint"/>
                    </mxGeometry>
                </mxCell>
                <mxCell id="18" value="" style="endArrow=none;html=1;entryX=0.5;entryY=1;entryDx=0;entryDy=0;entryPerimeter=0;strokeWidth=2;fillColor=#1ba1e2;strokeColor=#006EAF;" parent="1" target="13" edge="1">
                    <mxGeometry width="50" height="50" relative="1" as="geometry">
                        <mxPoint x="647" y="400" as="sourcePoint"/>
                        <mxPoint x="697" y="350" as="targetPoint"/>
                    </mxGeometry>
                </mxCell>
                <mxCell id="21" value="" style="endArrow=none;html=1;entryX=0.43;entryY=1;entryDx=0;entryDy=0;entryPerimeter=0;strokeWidth=2;fillColor=#1ba1e2;strokeColor=#006EAF;" parent="1" target="5" edge="1">
                    <mxGeometry width="50" height="50" relative="1" as="geometry">
                        <mxPoint x="411.9999999999998" y="400" as="sourcePoint"/>
                        <mxPoint x="520.0000000000002" y="281" as="targetPoint"/>
                    </mxGeometry>
                </mxCell>
                <mxCell id="27" value="" style="endArrow=none;html=1;strokeWidth=4;fillColor=#1ba1e2;strokeColor=#006EAF;" parent="1" target="22" edge="1">
                    <mxGeometry width="50" height="50" relative="1" as="geometry">
                        <mxPoint x="390" y="400" as="sourcePoint"/>
                        <mxPoint x="647" y="400" as="targetPoint"/>
                    </mxGeometry>
                </mxCell>
                <mxCell id="22" value="" style="rounded=1;whiteSpace=wrap;html=1;arcSize=0;fillColor=#1ba1e2;fontColor=#ffffff;strokeColor=#006EAF;" parent="1" vertex="1">
                    <mxGeometry x="408" y="395" width="13" height="10" as="geometry"/>
                </mxCell>
                <mxCell id="28" value="" style="rounded=1;whiteSpace=wrap;html=1;arcSize=0;fillColor=#1ba1e2;fontColor=#ffffff;strokeColor=#006EAF;" parent="1" vertex="1">
                    <mxGeometry x="640" y="395" width="13" height="10" as="geometry"/>
                </mxCell>
                <mxCell id="32" value="" style="endArrow=none;dashed=1;html=1;dashPattern=1 3;strokeWidth=2;" parent="1" edge="1">
                    <mxGeometry width="50" height="50" relative="1" as="geometry">
                        <mxPoint x="100" y="170" as="sourcePoint"/>
                        <mxPoint x="200" y="190" as="targetPoint"/>
                    </mxGeometry>
                </mxCell>
                <mxCell id="33" value="" style="endArrow=none;dashed=1;html=1;dashPattern=1 3;strokeWidth=2;" parent="1" edge="1">
                    <mxGeometry width="50" height="50" relative="1" as="geometry">
                        <mxPoint x="70" y="210" as="sourcePoint"/>
                        <mxPoint x="190" y="200" as="targetPoint"/>
                    </mxGeometry>
                </mxCell>
                <mxCell id="34" value="" style="endArrow=none;dashed=1;html=1;dashPattern=1 3;strokeWidth=2;" parent="1" edge="1">
                    <mxGeometry width="50" height="50" relative="1" as="geometry">
                        <mxPoint x="90" y="250" as="sourcePoint"/>
                        <mxPoint x="190" y="210" as="targetPoint"/>
                    </mxGeometry>
                </mxCell>
                <mxCell id="35" value="ChirpStack LNS" style="rounded=0;whiteSpace=wrap;html=1;fillColor=none;strokeColor=none;fontStyle=1;fontSize=14;textOpacity=40;" parent="1" vertex="1">
                    <mxGeometry x="701" y="195" width="120" height="30" as="geometry"/>
                </mxCell>
                <mxCell id="36" value="&lt;span style=&quot;font-weight: normal;&quot;&gt;Internet backbone&lt;/span&gt;" style="rounded=0;whiteSpace=wrap;html=1;fillColor=none;strokeColor=none;fontStyle=1;fontSize=14;" parent="1" vertex="1">
                    <mxGeometry x="456" y="413" width="142" height="30" as="geometry"/>
                </mxCell>
                <mxCell id="37" value="" style="endArrow=none;dashed=1;html=1;dashPattern=1 3;strokeWidth=2;" parent="1" edge="1">
                    <mxGeometry width="50" height="50" relative="1" as="geometry">
                        <mxPoint x="350" y="200" as="sourcePoint"/>
                        <mxPoint x="250" y="200" as="targetPoint"/>
                    </mxGeometry>
                </mxCell>
                <mxCell id="38" value="" style="endArrow=none;dashed=1;html=1;dashPattern=1 3;strokeWidth=2;" parent="1" edge="1">
                    <mxGeometry width="50" height="50" relative="1" as="geometry">
                        <mxPoint x="511" y="199.8" as="sourcePoint"/>
                        <mxPoint x="411" y="199.8" as="targetPoint"/>
                    </mxGeometry>
                </mxCell>
                <mxCell id="13" value="" style="shape=mxgraph.cisco.misc.hp_mini;sketch=0;html=1;pointerEvents=1;dashed=0;fillColor=#1ba1e2;strokeColor=#006EAF;strokeWidth=2;verticalLabelPosition=bottom;verticalAlign=top;align=center;outlineConnect=0;fontColor=#ffffff;" parent="1" vertex="1">
                    <mxGeometry x="730" y="227" width="50" height="54" as="geometry"/>
                </mxCell>
                <mxCell id="7" value="" style="shape=mxgraph.cisco.wireless.wlan_controller;sketch=0;html=1;pointerEvents=1;dashed=0;fillColor=#1ba1e2;strokeColor=#006EAF;strokeWidth=2;verticalLabelPosition=bottom;verticalAlign=top;align=center;outlineConnect=0;fontColor=#ffffff;" parent="1" vertex="1">
                    <mxGeometry x="456" y="300" width="80" height="30" as="geometry"/>
                </mxCell>
                <mxCell id="39" value="Border Gateway" style="rounded=0;whiteSpace=wrap;html=1;fillColor=none;strokeColor=none;fontSize=14;" parent="1" vertex="1">
                    <mxGeometry x="460" y="340" width="120" height="30" as="geometry"/>
                </mxCell>
                <mxCell id="40" value="" style="shape=mxgraph.cisco.wireless.radio_tower;sketch=0;html=1;pointerEvents=1;dashed=0;fillColor=#1ba1e2;strokeColor=#006EAF;strokeWidth=2;verticalLabelPosition=bottom;verticalAlign=top;align=center;outlineConnect=0;flipV=0;flipH=0;fontColor=#ffffff;" parent="1" vertex="1">
                    <mxGeometry x="691" y="45" width="37" height="101" as="geometry"/>
                </mxCell>
                <mxCell id="43" value="" style="shape=mxgraph.cisco.wireless.wireless_transport;sketch=0;html=1;pointerEvents=1;dashed=0;fillColor=#036897;strokeColor=#ffffff;strokeWidth=2;verticalLabelPosition=bottom;verticalAlign=top;align=center;outlineConnect=0;" parent="1" vertex="1">
                    <mxGeometry x="550" y="30" width="37" height="30" as="geometry"/>
                </mxCell>
                <mxCell id="46" value="" style="endArrow=none;html=1;strokeWidth=2;startArrow=none;exitX=0.5;exitY=0;exitDx=0;exitDy=0;fillColor=#1ba1e2;strokeColor=#006EAF;" parent="1" source="47" edge="1">
                    <mxGeometry width="50" height="50" relative="1" as="geometry">
                        <mxPoint x="550" y="390" as="sourcePoint"/>
                        <mxPoint x="670" y="270" as="targetPoint"/>
                    </mxGeometry>
                </mxCell>
                <mxCell id="50" value="" style="endArrow=none;html=1;strokeWidth=2;startArrow=none;fillColor=#1ba1e2;strokeColor=#006EAF;" parent="1" edge="1">
                    <mxGeometry width="50" height="50" relative="1" as="geometry">
                        <mxPoint x="670" y="270" as="sourcePoint"/>
                        <mxPoint x="669.5" y="190.5" as="targetPoint"/>
                    </mxGeometry>
                </mxCell>
                <mxCell id="51" value="Gateway" style="rounded=0;whiteSpace=wrap;html=1;fillColor=none;strokeColor=none;fontSize=14;" parent="1" vertex="1">
                    <mxGeometry x="620" y="129" width="66" height="30" as="geometry"/>
                </mxCell>
                <mxCell id="52" value="" style="endArrow=none;dashed=1;html=1;dashPattern=1 3;strokeWidth=2;" parent="1" edge="1">
                    <mxGeometry width="50" height="50" relative="1" as="geometry">
                        <mxPoint x="587" y="45" as="sourcePoint"/>
                        <mxPoint x="680" y="60" as="targetPoint"/>
                    </mxGeometry>
                </mxCell>
                <mxCell id="53" value="" style="endArrow=none;html=1;strokeWidth=2;entryX=0.43;entryY=1;entryDx=0;entryDy=0;entryPerimeter=0;fillColor=#1ba1e2;strokeColor=#006EAF;" parent="1" target="40" edge="1">
                    <mxGeometry width="50" height="50" relative="1" as="geometry">
                        <mxPoint x="684.5" y="160" as="sourcePoint"/>
                        <mxPoint x="734.5" y="110" as="targetPoint"/>
                    </mxGeometry>
                </mxCell>
                <mxCell id="54" value="" style="endArrow=classic;startArrow=classic;html=1;strokeWidth=1;" parent="1" edge="1">
                    <mxGeometry width="50" height="50" relative="1" as="geometry">
                        <mxPoint x="40" y="480" as="sourcePoint"/>
                        <mxPoint x="760" y="480" as="targetPoint"/>
                    </mxGeometry>
                </mxCell>
                <mxCell id="56" value="Relay Gateway" style="rounded=0;whiteSpace=wrap;html=1;fillColor=none;strokeColor=none;fontSize=14;" parent="1" vertex="1">
                    <mxGeometry x="110" y="340" width="100" height="30" as="geometry"/>
                </mxCell>
                <mxCell id="57" value="Relay Gateway" style="rounded=0;whiteSpace=wrap;html=1;fillColor=none;strokeColor=none;fontSize=14;" parent="1" vertex="1">
                    <mxGeometry x="270" y="340" width="100" height="30" as="geometry"/>
                </mxCell>
                <mxCell id="58" value="" style="endArrow=none;dashed=1;html=1;dashPattern=1 3;strokeWidth=2;" parent="1" edge="1">
                    <mxGeometry width="50" height="50" relative="1" as="geometry">
                        <mxPoint x="560" y="116" as="sourcePoint"/>
                        <mxPoint x="680" y="80" as="targetPoint"/>
                    </mxGeometry>
                </mxCell>
                <mxCell id="59" value="Up to 10 - 100 Km" style="rounded=0;whiteSpace=wrap;html=1;fillColor=none;strokeColor=none;" parent="1" vertex="1">
                    <mxGeometry x="340" y="482" width="116" height="30" as="geometry"/>
                </mxCell>
                <mxCell id="60" value="End devices" style="rounded=0;whiteSpace=wrap;html=1;fillColor=none;strokeColor=none;fontSize=14;" parent="1" vertex="1">
                    <mxGeometry x="81" y="118" width="100" height="30" as="geometry"/>
                </mxCell>
                <mxCell id="61" value="End devices" style="rounded=0;whiteSpace=wrap;html=1;fillColor=none;strokeColor=none;fontSize=14;" parent="1" vertex="1">
                    <mxGeometry x="508" y="64" width="100" height="30" as="geometry"/>
                </mxCell>
                <mxCell id="62" value="Hop" style="rounded=0;whiteSpace=wrap;html=1;fillColor=none;strokeColor=none;fontSize=14;" parent="1" vertex="1">
                    <mxGeometry x="278" y="161" width="40" height="30" as="geometry"/>
                </mxCell>
                <mxCell id="63" value="Hop" style="rounded=0;whiteSpace=wrap;html=1;fillColor=none;strokeColor=none;fontSize=14;" parent="1" vertex="1">
                    <mxGeometry x="435" y="161" width="40" height="30" as="geometry"/>
                </mxCell>
                <mxCell id="64" value="" style="endArrow=none;html=1;entryX=0.43;entryY=1;entryDx=0;entryDy=0;entryPerimeter=0;strokeWidth=2;fillColor=#1ba1e2;strokeColor=#006EAF;" parent="1" target="3" edge="1">
                    <mxGeometry width="50" height="50" relative="1" as="geometry">
                        <mxPoint x="352.5499999999998" y="300" as="sourcePoint"/>
                        <mxPoint x="476.4600000000001" y="181" as="targetPoint"/>
                    </mxGeometry>
                </mxCell>
                <mxCell id="65" value="" style="endArrow=none;html=1;entryX=0.43;entryY=1;entryDx=0;entryDy=0;entryPerimeter=0;strokeWidth=2;fillColor=#1ba1e2;strokeColor=#006EAF;" parent="1" edge="1">
                    <mxGeometry width="50" height="50" relative="1" as="geometry">
                        <mxPoint x="192.54999999999973" y="300" as="sourcePoint"/>
                        <mxPoint x="215.91000000000008" y="281" as="targetPoint"/>
                    </mxGeometry>
                </mxCell>
                <mxCell id="66" value="GLStation Mesh architecture" style="rounded=0;whiteSpace=wrap;html=1;fillColor=none;strokeColor=none;fontSize=32;textOpacity=80;" parent="1" vertex="1">
                    <mxGeometry x="72" y="15" width="420" height="64" as="geometry"/>
                </mxCell>
                <mxCell id="6" value="" style="shape=mxgraph.cisco.wireless.wlan_controller;sketch=0;html=1;pointerEvents=1;dashed=0;fillColor=#1ba1e2;strokeColor=#006EAF;strokeWidth=2;verticalLabelPosition=bottom;verticalAlign=top;align=center;outlineConnect=0;opacity=60;fontColor=#ffffff;" parent="1" vertex="1">
                    <mxGeometry x="296" y="300" width="80" height="30" as="geometry"/>
                </mxCell>
                <mxCell id="4" value="" style="shape=mxgraph.cisco.wireless.wlan_controller;sketch=0;html=1;pointerEvents=1;dashed=0;fillColor=#1ba1e2;strokeColor=#006EAF;strokeWidth=2;verticalLabelPosition=bottom;verticalAlign=top;align=center;outlineConnect=0;opacity=60;fontColor=#ffffff;" parent="1" vertex="1">
                    <mxGeometry x="136" y="300" width="80" height="30" as="geometry"/>
                </mxCell>
                <mxCell id="67" value="Mesh encapsuled LoRaWAN payload" style="rounded=0;whiteSpace=wrap;html=1;fillColor=none;strokeColor=none;fontSize=14;" parent="1" vertex="1">
                    <mxGeometry x="250" y="223" width="90" height="30" as="geometry"/>
                </mxCell>
                <mxCell id="68" value="Mesh encapsuled LoRaWAN payload" style="rounded=0;whiteSpace=wrap;html=1;fillColor=none;strokeColor=none;fontSize=14;" parent="1" vertex="1">
                    <mxGeometry x="412" y="223" width="88" height="30" as="geometry"/>
                </mxCell>
                <mxCell id="41" value="" style="shape=mxgraph.cisco.wireless.wlan_controller;sketch=0;html=1;pointerEvents=1;dashed=0;fillColor=#1ba1e2;strokeColor=#006EAF;strokeWidth=2;verticalLabelPosition=bottom;verticalAlign=top;align=center;outlineConnect=0;fontColor=#ffffff;" parent="1" vertex="1">
                    <mxGeometry x="640" y="160" width="80" height="30" as="geometry"/>
                </mxCell>
                <mxCell id="71" value="" style="shape=mxgraph.cisco.wireless.wireless_transport;sketch=0;html=1;pointerEvents=1;dashed=0;fillColor=#036897;strokeColor=#ffffff;strokeWidth=2;verticalLabelPosition=bottom;verticalAlign=top;align=center;outlineConnect=0;" parent="1" vertex="1">
                    <mxGeometry x="512" y="100" width="37" height="30" as="geometry"/>
                </mxCell>
                <mxCell id="47" value="" style="rounded=1;whiteSpace=wrap;html=1;arcSize=0;fillColor=#1ba1e2;fontColor=#ffffff;strokeColor=#006EAF;" parent="1" vertex="1">
                    <mxGeometry x="536" y="397" width="13" height="10" as="geometry"/>
                </mxCell>
                <mxCell id="74" value="" style="endArrow=none;dashed=1;html=1;dashPattern=1 3;strokeWidth=2;" parent="1" edge="1">
                    <mxGeometry width="50" height="50" relative="1" as="geometry">
                        <mxPoint x="535" y="140" as="sourcePoint"/>
                        <mxPoint x="535" y="170" as="targetPoint"/>
                    </mxGeometry>
                </mxCell>
                <mxCell id="76" value="Max 8 hops" style="rounded=0;whiteSpace=wrap;html=1;fillColor=none;strokeColor=none;fontSize=14;textOpacity=40;" parent="1" vertex="1">
                    <mxGeometry x="188" y="385" width="90" height="30" as="geometry"/>
                </mxCell>
                <mxCell id="78" value="" style="endArrow=classic;startArrow=none;html=1;startFill=0;fillColor=#dae8fc;gradientColor=#7ea6e0;strokeColor=#6c8ebf;opacity=40;" parent="1" edge="1">
                    <mxGeometry width="50" height="50" relative="1" as="geometry">
                        <mxPoint x="280" y="400" as="sourcePoint"/>
                        <mxPoint x="370" y="400" as="targetPoint"/>
                    </mxGeometry>
                </mxCell>
                <mxCell id="79" value="" style="endArrow=none;startArrow=classic;html=1;entryX=0.447;entryY=0.714;entryDx=0;entryDy=0;entryPerimeter=0;endFill=0;fillColor=#dae8fc;strokeColor=#6c8ebf;gradientColor=#7ea6e0;opacity=50;" parent="1" edge="1">
                    <mxGeometry width="50" height="50" relative="1" as="geometry">
                        <mxPoint x="110" y="400" as="sourcePoint"/>
                        <mxPoint x="187.99999999999994" y="399.83000000000004" as="targetPoint"/>
                        <Array as="points">
                            <mxPoint x="128.05" y="399.99"/>
                        </Array>
                    </mxGeometry>
                </mxCell>
                <mxCell id="82" value="Radio link" style="rounded=0;whiteSpace=wrap;html=1;fillColor=none;strokeColor=none;fontSize=14;textOpacity=40;" vertex="1" parent="1">
                    <mxGeometry x="321" y="131" width="90" height="30" as="geometry"/>
                </mxCell>
                <mxCell id="83" value="" style="endArrow=classic;startArrow=none;html=1;startFill=0;fillColor=#dae8fc;gradientColor=#7ea6e0;strokeColor=#6c8ebf;opacity=40;" edge="1" parent="1">
                    <mxGeometry width="50" height="50" relative="1" as="geometry">
                        <mxPoint x="413.0000000000002" y="145.99999999999977" as="sourcePoint"/>
                        <mxPoint x="503" y="145.99999999999977" as="targetPoint"/>
                    </mxGeometry>
                </mxCell>
                <mxCell id="84" value="" style="endArrow=none;startArrow=classic;html=1;entryX=0.447;entryY=0.714;entryDx=0;entryDy=0;entryPerimeter=0;endFill=0;fillColor=#dae8fc;strokeColor=#6c8ebf;gradientColor=#7ea6e0;opacity=50;" edge="1" parent="1">
                    <mxGeometry width="50" height="50" relative="1" as="geometry">
                        <mxPoint x="243" y="145.92999999999978" as="sourcePoint"/>
                        <mxPoint x="321" y="145.75999999999993" as="targetPoint"/>
                        <Array as="points">
                            <mxPoint x="261.05" y="145.92000000000002"/>
                        </Array>
                    </mxGeometry>
                </mxCell>
            </root>
        </mxGraphModel>
    </diagram>
</mxfile>